<?xml version="1.0" standalone="no"?>
<!DOCTYPE svg PUBLIC "-//W3C//DTD SVG 20010904//EN"
 "http://www.w3.org/TR/2001/REC-SVG-20010904/DTD/svg10.dtd">
<svg version="1.0" xmlns="http://www.w3.org/2000/svg"
 width="600.000000pt" height="134.000000pt" viewBox="0 0 600.000000 134.000000"
 preserveAspectRatio="xMidYMid meet">

<g transform="translate(0.000000,134.000000) scale(0.100000,-0.100000)"
fill="#000000" stroke="none">
<path d="M453 1069 c-40 -21 -75 -44 -78 -49 -3 -6 13 -45 37 -87 24 -43 45
-81 46 -85 2 -5 -15 -29 -39 -56 -67 -75 -94 -142 -94 -237 0 -44 4 -96 8
-115 8 -34 6 -36 -61 -88 -99 -77 -125 -134 -68 -147 21 -6 111 18 196 51 45
17 45 17 83 -9 135 -92 333 -71 452 48 65 64 97 140 103 238 l5 78 57 44 c162
125 136 194 -49 130 l-74 -25 -43 39 c-72 67 -136 94 -234 99 -80 4 -110 -2
-181 -32 -11 -5 -19 1 -27 19 -18 39 -16 41 43 75 61 35 68 51 30 68 -18 9
-25 19 -25 41 0 16 -4 32 -8 35 -4 3 -40 -13 -79 -35z m41 -56 c7 -18 -17 -43
-41 -43 -23 0 -27 30 -7 45 25 19 41 19 48 -2z m323 -186 c78 -40 176 -160
161 -199 -7 -17 -222 -145 -392 -234 l-129 -67 -28 33 c-38 45 -59 111 -59
187 l0 63 28 -6 c41 -8 82 27 82 72 0 20 -8 42 -19 53 -19 19 -18 20 12 49 89
83 234 104 344 49z m333 -66 c0 -9 -110 -101 -121 -101 -8 0 -31 52 -25 57 5
6 127 52 139 52 4 1 7 -3 7 -8z m-160 -227 c0 -27 -7 -43 -31 -65 -27 -25 -30
-33 -24 -66 5 -35 3 -41 -37 -80 -64 -62 -127 -88 -218 -87 -57 0 -88 5 -127
23 -29 13 -53 27 -53 31 0 5 60 39 133 78 72 38 179 98 237 135 58 36 108 65
113 66 4 1 7 -15 7 -35z m-608 -191 c10 -9 18 -21 18 -28 0 -12 -157 -71 -166
-62 -5 5 112 107 123 107 4 0 15 -7 25 -17z"/>
<path d="M607 813 c-15 -14 -7 -43 12 -43 26 0 36 17 21 35 -14 16 -23 19 -33
8z"/>
<path d="M732 717 c-37 -40 -28 -98 19 -123 36 -18 73 -10 99 23 26 33 25 64
-1 97 -27 35 -86 36 -117 3z"/>
<path d="M502 528 c-18 -18 -14 -53 8 -73 41 -37 102 24 64 66 -19 21 -54 25
-72 7z"/>
<path d="M741 386 c-15 -18 -4 -46 18 -46 27 0 42 20 30 42 -12 21 -32 23 -48
4z"/>
<path d="M5544 860 c-74 -23 -121 -124 -94 -204 16 -50 57 -80 148 -111 44
-14 87 -34 95 -43 25 -28 30 -67 13 -101 -20 -38 -44 -51 -96 -51 -33 0 -48 6
-71 29 -17 17 -29 40 -29 55 0 23 -4 26 -35 26 -33 0 -35 -2 -35 -34 0 -46 37
-97 90 -123 76 -39 163 -26 220 32 31 32 35 42 38 103 3 57 1 71 -18 95 -25
31 -70 56 -149 82 -67 22 -101 54 -101 94 0 43 9 60 41 76 63 33 133 4 145
-60 6 -32 9 -35 41 -35 l36 0 -6 42 c-6 44 -28 81 -68 110 -30 22 -120 32
-165 18z"/>
<path d="M1367 854 c-4 -4 -7 -133 -7 -286 l0 -278 125 0 c186 0 227 23 232
133 4 74 -8 103 -60 136 l-37 24 31 19 c32 20 59 71 59 112 0 40 -28 99 -58
121 -23 17 -46 20 -152 23 -69 2 -129 0 -133 -4z m208 -109 c49 -48 21 -112
-53 -122 l-42 -6 0 77 0 76 35 0 c25 0 44 -8 60 -25z m17 -232 c25 -23 24 -87
-2 -113 -14 -14 -33 -20 -65 -20 l-45 0 0 75 0 75 47 0 c29 0 53 -6 65 -17z"/>
<path d="M1800 641 c0 -131 4 -231 11 -248 36 -96 162 -141 265 -94 89 40 106
101 102 366 l-3 190 -57 3 -58 3 0 -221 c0 -207 -1 -221 -20 -240 -30 -30 -83
-27 -109 6 -20 25 -21 39 -21 240 l0 214 -55 0 -55 0 0 -219z"/>
<path d="M2250 824 c0 -22 25 -101 60 -191 58 -149 60 -155 60 -248 l0 -95 55
0 55 0 0 95 c0 92 1 98 60 245 39 97 60 165 60 191 l0 40 -47 -3 -48 -3 -35
-110 c-20 -60 -40 -110 -44 -110 -4 0 -24 50 -44 110 l-37 110 -47 3 -48 3 0
-37z"/>
<path d="M2900 575 l0 -285 40 0 40 0 0 115 0 115 68 0 c125 0 182 53 182 169
0 129 -56 170 -227 171 l-103 0 0 -285z m236 194 c13 -15 18 -36 19 -81 0 -53
-3 -62 -28 -84 -23 -20 -39 -24 -88 -24 l-59 0 0 105 0 105 68 0 c57 0 72 -4
88 -21z"/>
<path d="M3345 847 c-3 -7 -4 -134 -3 -282 l3 -270 143 -3 142 -3 0 36 0 35
-105 0 -105 0 0 250 0 250 -35 0 c-20 0 -38 -6 -40 -13z"/>
<path d="M3806 843 c-29 -101 -116 -489 -116 -517 0 -34 2 -36 33 -36 32 0 33
1 47 68 l15 67 89 0 90 0 14 -67 15 -68 35 0 35 0 -5 48 c-3 26 -31 154 -62
285 l-58 237 -63 0 c-52 0 -65 -3 -69 -17z m104 -184 c17 -74 33 -142 36 -151
5 -16 -3 -18 -71 -18 -68 0 -76 2 -71 18 2 9 14 62 26 117 30 137 41 178 46
172 2 -2 18 -64 34 -138z"/>
<path d="M4167 853 c-4 -3 -7 -132 -7 -285 l0 -278 35 0 35 0 0 251 c0 150 4
248 9 244 5 -3 46 -115 91 -250 l82 -245 54 0 54 0 0 286 0 285 -32 -3 -33 -3
-5 -248 -5 -248 -85 250 -85 251 -51 0 c-28 0 -54 -3 -57 -7z"/>
<path d="M4660 575 l0 -285 145 0 145 0 0 35 0 34 -107 3 -108 3 0 90 0 90 98
3 97 3 0 29 0 29 -97 3 -98 3 0 85 0 85 108 3 107 3 0 34 0 35 -145 0 -145 0
0 -285z"/>
<path d="M5030 825 l0 -35 70 0 70 0 0 -250 0 -250 35 0 35 0 0 250 0 250 70
0 70 0 0 35 0 35 -175 0 -175 0 0 -35z"/>
</g>
</svg>
